<svg width="718" height="48" viewBox="0 0 718 48" fill="none" xmlns="http://www.w3.org/2000/svg">
<g clip-path="url(#clip0_2_22)">
<path d="M67.547 14.05C67.547 15.4915 66.3858 16.6527 64.9444 16.6527C63.5029 16.6527 62.3418 15.4915 62.3418 14.05C62.3418 12.6086 63.4629 11.4474 64.9444 11.4474C66.4258 11.4875 67.547 12.6486 67.547 14.05ZM56.8162 19.2953C56.8162 19.5355 56.8162 19.9359 56.8162 19.9359C56.8162 19.9359 55.575 18.3343 52.9324 18.3343C48.568 18.3343 45.1646 21.6577 45.1646 26.2623C45.1646 30.8268 48.5279 34.1902 52.9324 34.1902C55.615 34.1902 56.8162 32.5485 56.8162 32.5485V33.2292C56.8162 33.5495 57.0565 33.7898 57.3768 33.7898H60.62V18.7347C60.62 18.7347 57.6571 18.7347 57.3768 18.7347C57.0565 18.7347 56.8162 19.015 56.8162 19.2953ZM56.8162 28.9449C56.2156 29.8258 55.0144 30.5866 53.573 30.5866C51.0104 30.5866 49.0485 28.985 49.0485 26.2623C49.0485 23.5395 51.0104 21.9379 53.573 21.9379C54.9744 21.9379 56.2557 22.7387 56.8162 23.5796V28.9449ZM63.0224 18.7347H66.8663V33.7898H63.0224V18.7347ZM120.44 18.3343C117.797 18.3343 116.556 19.9359 116.556 19.9359V11.4875H112.712V33.7898C112.712 33.7898 115.675 33.7898 115.955 33.7898C116.276 33.7898 116.516 33.5095 116.516 33.2292V32.5485C116.516 32.5485 117.757 34.1902 120.4 34.1902C124.764 34.1902 128.168 30.8268 128.168 26.2623C128.168 21.6977 124.764 18.3343 120.44 18.3343ZM119.799 30.5465C118.318 30.5465 117.157 29.7858 116.556 28.9049V23.5395C117.157 22.7387 118.438 21.8979 119.799 21.8979C122.362 21.8979 124.324 23.4995 124.324 26.2222C124.324 28.9449 122.362 30.5465 119.799 30.5465ZM110.71 24.8609V33.8298H106.866V25.3013C106.866 22.8188 106.065 21.8178 103.903 21.8178C102.742 21.8178 101.541 22.4184 100.78 23.2993V33.7898H96.9363V18.7347H99.9794C100.3 18.7347 100.54 19.015 100.54 19.2953V19.9359C101.661 18.7748 103.143 18.3343 104.624 18.3343C106.306 18.3343 107.707 18.8148 108.828 19.7758C110.19 20.8969 110.71 22.3383 110.71 24.8609ZM87.607 18.3343C84.9644 18.3343 83.7231 19.9359 83.7231 19.9359V11.4875H79.8793V33.7898C79.8793 33.7898 82.8423 33.7898 83.1225 33.7898C83.4429 33.7898 83.6831 33.5095 83.6831 33.2292V32.5485C83.6831 32.5485 84.9243 34.1902 87.567 34.1902C91.9313 34.1902 95.3347 30.8268 95.3347 26.2623C95.3748 21.6977 91.9714 18.3343 87.607 18.3343ZM86.9664 30.5465C85.4849 30.5465 84.3237 29.7858 83.7231 28.9049V23.5395C84.3237 22.7387 85.605 21.8979 86.9664 21.8979C89.5289 21.8979 91.4909 23.4995 91.4909 26.2222C91.4909 28.9449 89.5289 30.5465 86.9664 30.5465ZM76.556 18.3343C77.7171 18.3343 78.3177 18.5345 78.3177 18.5345V22.0981C78.3177 22.0981 75.1145 21.017 73.1125 23.2993V33.8298H69.2687V18.7347C69.2687 18.7347 72.2317 18.7347 72.5119 18.7347C72.8322 18.7347 73.0725 19.015 73.0725 19.2953V19.9359C73.7932 19.0951 75.3548 18.3343 76.556 18.3343ZM36.6361 32.4284C36.4359 31.9479 36.2357 31.4274 36.0355 30.987C35.7151 30.2663 35.3948 29.5856 35.1145 28.9449L35.0745 28.9049C32.3117 22.8989 29.3488 16.8128 26.2257 10.8068L26.1055 10.5666C25.7852 9.96597 25.4649 9.32533 25.1446 8.68468C24.7442 7.96396 24.3438 7.2032 23.7031 6.48248C22.4218 4.88088 20.58 4 18.618 4C16.616 4 14.8142 4.88088 13.4929 6.4024C12.8923 7.12312 12.4519 7.88388 12.0515 8.6046C11.7312 9.24525 11.4108 9.88589 11.0905 10.4865L10.9704 10.7267C7.88732 16.7327 4.88431 22.8188 2.12155 28.8248L2.08151 28.9049C1.80123 29.5455 1.48091 30.2262 1.16059 30.9469C0.960391 31.3874 0.760191 31.8679 0.559991 32.3884C0.0394705 33.8699 -0.12069 35.2713 0.0795105 36.7127C0.519951 39.7157 2.52195 42.2382 5.28471 43.3594C6.32576 43.7998 7.40684 44 8.52796 44C8.84828 44 9.24868 43.96 9.569 43.9199C10.8903 43.7598 12.2517 43.3193 13.573 42.5586C15.2146 41.6376 16.7762 40.3163 18.538 38.3944C20.2997 40.3163 21.9013 41.6376 23.5029 42.5586C24.8243 43.3193 26.1856 43.7598 27.5069 43.9199C27.8272 43.96 28.2277 44 28.548 44C29.6691 44 30.7902 43.7998 31.7912 43.3594C34.594 42.2382 36.556 39.6757 36.9964 36.7127C37.3167 35.3113 37.1566 33.9099 36.6361 32.4284ZM18.578 34.5105C16.4158 31.7878 15.0144 29.2252 14.534 27.0631C14.3338 26.1421 14.2937 25.3413 14.4138 24.6206C14.4939 23.98 14.7342 23.4194 15.0545 22.9389C15.8152 21.8579 17.0965 21.1772 18.578 21.1772C20.0595 21.1772 21.3808 21.8178 22.1015 22.9389C22.4218 23.4194 22.6621 23.98 22.7422 24.6206C22.8623 25.3413 22.8222 26.1822 22.622 27.0631C22.1416 29.1852 20.7402 31.7477 18.578 34.5105ZM34.554 36.3924C34.2737 38.4745 32.8723 40.2763 30.9103 41.0771C29.9494 41.4775 28.9083 41.5976 27.8673 41.4775C26.8663 41.3574 25.8653 41.037 24.8243 40.4364C23.3828 39.6356 21.9414 38.3944 20.2597 36.5526C22.9023 33.3093 24.5039 30.3463 25.1045 27.7037C25.3848 26.4625 25.4249 25.3413 25.3047 24.3003C25.1446 23.2993 24.7842 22.3784 24.2236 21.5776C22.9824 19.7758 20.9003 18.7347 18.578 18.7347C16.2557 18.7347 14.1736 19.8158 12.9324 21.5776C12.3718 22.3784 12.0114 23.2993 11.8513 24.3003C11.6911 25.3413 11.7312 26.5025 12.0515 27.7037C12.6521 30.3463 14.2937 33.3493 16.8963 36.5926C15.2547 38.4344 13.7732 39.6757 12.3318 40.4765C11.2907 41.0771 10.2897 41.3974 9.28872 41.5175C8.20764 41.6376 7.1666 41.4775 6.24568 41.1171C4.28371 40.3163 2.88231 38.5145 2.60203 36.4324C2.48191 35.4314 2.56199 34.4304 2.96239 33.3093C3.08251 32.9089 3.28271 32.5085 3.48291 32.028C3.76319 31.3874 4.08351 30.7067 4.40383 30.026L4.44387 29.9459C7.20664 23.98 10.1696 17.8939 13.2527 11.968L13.3728 11.7277C13.6931 11.1271 14.0134 10.4865 14.3338 9.88589C14.6541 9.24524 15.0144 8.64464 15.4549 8.12412C16.2957 7.16316 17.4168 6.64264 18.6581 6.64264C19.8993 6.64264 21.0204 7.16316 21.8613 8.12412C22.3017 8.64464 22.6621 9.24524 22.9824 9.88589C23.3027 10.4865 23.623 11.1271 23.9434 11.7277L24.0635 11.968C27.1065 17.9339 30.0695 24.02 32.8323 29.986V30.026C33.1526 30.6667 33.4329 31.3874 33.7532 32.028C33.9534 32.5085 34.1536 32.9089 34.2737 33.3093C34.594 34.3503 34.7141 35.3514 34.554 36.3924Z" fill="#878787"/>
</g>
<path fill-rule="evenodd" clip-rule="evenodd" d="M219.935 37.8069C213.571 42.4973 204.348 44.9998 196.406 44.9998C185.271 44.9998 175.247 40.8814 167.663 34.0316C167.067 33.493 167.601 32.7589 168.316 33.1784C176.501 37.9403 186.62 40.8051 197.074 40.8051C204.124 40.8051 211.879 39.3465 219.01 36.3196C220.087 35.862 220.988 37.0251 219.935 37.8069Z" fill="#878787"/>
<path fill-rule="evenodd" clip-rule="evenodd" d="M222.581 34.78C221.77 33.7409 217.204 34.2891 215.154 34.5322C214.53 34.6084 214.434 34.065 214.997 33.6741C218.634 31.1144 224.602 31.8533 225.298 32.7113C225.993 33.574 225.116 39.5563 221.699 42.4115C221.174 42.8501 220.674 42.6165 220.907 42.035C221.675 40.1187 223.396 35.8239 222.581 34.78Z" fill="#878787"/>
<path fill-rule="evenodd" clip-rule="evenodd" d="M215.297 15.6036V13.1154C215.297 12.7388 215.583 12.4862 215.927 12.4862H227.066C227.424 12.4862 227.71 12.7436 227.71 13.1154V15.2461C227.705 15.6036 227.405 16.0708 226.871 16.8096L221.098 25.0513C223.243 24.9988 225.508 25.3182 227.452 26.4145C227.891 26.6624 228.01 27.0247 228.043 27.3822V30.0373C228.043 30.3995 227.643 30.8238 227.224 30.6045C223.796 28.8074 219.244 28.612 215.455 30.6236C215.068 30.8333 214.663 30.4138 214.663 30.0516V27.53C214.663 27.1248 214.668 26.4336 215.073 25.8187L221.761 16.2281H215.941C215.583 16.2281 215.297 15.9754 215.297 15.6036Z" fill="#878787"/>
<path fill-rule="evenodd" clip-rule="evenodd" d="M174.661 31.1289H171.272C170.948 31.105 170.69 30.8619 170.667 30.5521V13.1583C170.667 12.8104 170.957 12.5339 171.32 12.5339H174.48C174.809 12.5482 175.071 12.8008 175.095 13.1154V15.3892H175.157C175.981 13.1917 177.531 12.1669 179.618 12.1669C181.74 12.1669 183.065 13.1917 184.018 15.3892C184.838 13.1917 186.702 12.1669 188.699 12.1669C190.119 12.1669 191.673 12.7532 192.622 14.0688C193.695 15.5322 193.475 17.6581 193.475 19.5219L193.47 30.4997C193.47 30.8476 193.18 31.1289 192.817 31.1289H189.433C189.095 31.105 188.823 30.8333 188.823 30.4997V21.2808C188.823 20.5468 188.89 18.7163 188.728 18.0204C188.475 16.8526 187.717 16.5236 186.735 16.5236C185.915 16.5236 185.057 17.0718 184.709 17.9489C184.361 18.826 184.395 20.2941 184.395 21.2808V30.4997C184.395 30.8476 184.104 31.1289 183.742 31.1289H180.357C180.014 31.105 179.747 30.8333 179.747 30.4997L179.742 21.2808C179.742 19.3408 180.062 16.4855 177.655 16.4855C175.219 16.4855 175.314 19.2693 175.314 21.2808V30.4997C175.314 30.8476 175.023 31.1289 174.661 31.1289Z" fill="#878787"/>
<path fill-rule="evenodd" clip-rule="evenodd" d="M237.3 12.1669C242.329 12.1669 245.051 16.4855 245.051 21.9768C245.051 27.2821 242.043 31.4911 237.3 31.4911C232.362 31.4911 229.674 27.1725 229.674 21.7909C229.674 16.3759 232.395 12.1669 237.3 12.1669ZM237.329 15.7181C234.831 15.7181 234.674 19.1215 234.674 21.2427C234.674 23.3686 234.641 27.9066 237.3 27.9066C239.927 27.9066 240.051 24.2457 240.051 22.0149C240.051 20.5468 239.989 18.7926 239.545 17.4007C239.164 16.19 238.406 15.7181 237.329 15.7181Z" fill="#878787"/>
<path fill-rule="evenodd" clip-rule="evenodd" d="M251.572 31.1289H248.197C247.859 31.105 247.587 30.8333 247.587 30.4997L247.582 13.1011C247.611 12.7818 247.892 12.5339 248.235 12.5339H251.377C251.672 12.5482 251.915 12.7484 251.982 13.0201V15.6799H252.044C252.992 13.3013 254.322 12.1669 256.663 12.1669C258.183 12.1669 259.666 12.715 260.619 14.2166C261.506 15.6084 261.506 17.9489 261.506 19.6315V30.5807C261.468 30.8858 261.186 31.1289 260.853 31.1289H257.454C257.144 31.105 256.887 30.8762 256.854 30.5807V21.1331C256.854 19.2311 257.073 16.4474 254.732 16.4474C253.908 16.4474 253.15 17.0003 252.773 17.8393C252.297 18.9022 252.235 19.9605 252.235 21.1331V30.4997C252.23 30.8476 251.934 31.1289 251.572 31.1289Z" fill="#878787"/>
<path fill-rule="evenodd" clip-rule="evenodd" d="M206.417 22.8204C206.417 24.1408 206.45 25.2419 205.783 26.4146C205.244 27.3679 204.386 27.9542 203.438 27.9542C202.136 27.9542 201.374 26.9627 201.374 25.4993C201.374 22.6107 203.962 22.0864 206.417 22.0864V22.8204ZM209.835 31.0812C209.611 31.2814 209.286 31.2957 209.034 31.1622C207.909 30.2279 207.704 29.7942 207.089 28.9028C205.23 30.7999 203.91 31.3672 201.502 31.3672C198.647 31.3672 196.431 29.6083 196.431 26.0857C196.431 23.3353 197.918 21.4619 200.044 20.5467C201.884 19.7364 204.453 19.5934 206.417 19.3693V18.9308C206.417 18.1252 206.479 17.1719 206.002 16.476C205.592 15.8515 204.801 15.5941 204.1 15.5941C202.809 15.5941 201.66 16.2567 201.379 17.6295C201.321 17.9346 201.097 18.2349 200.787 18.2492L197.503 17.8964C197.227 17.8345 196.917 17.6104 196.998 17.1862C197.751 13.2012 201.355 12 204.577 12C206.226 12 208.381 12.4385 209.682 13.6874C211.331 15.2271 211.174 17.2815 211.174 19.5171V24.7986C211.174 26.386 211.832 27.0819 212.452 27.9399C212.666 28.245 212.714 28.612 212.437 28.8408C211.746 29.4176 210.516 30.4901 209.839 31.0907L209.835 31.0812Z" fill="#878787"/>
<path fill-rule="evenodd" clip-rule="evenodd" d="M161.986 22.8204C161.986 24.1408 162.02 25.2419 161.352 26.4145C160.814 27.3679 159.96 27.9542 159.007 27.9542C157.706 27.9542 156.948 26.9627 156.948 25.4993C156.948 22.6107 159.536 22.0864 161.986 22.0864V22.8204ZM165.404 31.0812C165.18 31.2814 164.856 31.2957 164.603 31.1622C163.478 30.2279 163.278 29.7941 162.658 28.9028C160.799 30.7999 159.484 31.3672 157.072 31.3672C154.221 31.3672 152 29.6082 152 26.0856C152 23.3352 153.492 21.4619 155.613 20.5467C157.453 19.7364 160.022 19.5934 161.986 19.3693V18.9308C161.986 18.1252 162.048 17.1719 161.576 16.4759C161.162 15.8515 160.37 15.5941 159.674 15.5941C158.383 15.5941 157.229 16.2567 156.948 17.6295C156.891 17.9346 156.667 18.2349 156.362 18.2492L153.073 17.8964C152.796 17.8345 152.491 17.6104 152.567 17.1862C153.325 13.2012 156.924 12 160.146 12C161.796 12 163.95 12.4385 165.251 13.6874C166.901 15.2271 166.743 17.2815 166.743 19.5171V24.7986C166.743 26.3859 167.401 27.0819 168.021 27.9399C168.24 28.245 168.288 28.612 168.011 28.8408C167.32 29.4176 166.09 30.4901 165.414 31.0907L165.404 31.0812Z" fill="#878787"/>
<g clip-path="url(#clip1_2_22)">
<path d="M442.724 22.9363V34.9883H447.331V26.9537H464.182V34.9883H468.789V22.9363H442.724ZM446.805 19.0291H464.577C467.078 18.6438 468.855 16.7727 469.382 15.0117H442C442.526 16.7727 444.369 18.5888 446.805 19.0291ZM428.703 34.9883C431.007 34.1629 432.258 32.732 432.784 31.0811H412.05V15.0668H407.377V34.9883H428.703ZM372.82 18.974H389.276C391.777 18.3687 393.817 16.7727 394.344 15.0668H368.278V26.8436H389.605V30.971H372.886C370.253 31.5764 368.015 33.0622 366.896 34.9883H394.212V22.9363H372.886L372.82 18.974ZM332.273 19.0291H350.045C352.547 18.6438 354.39 16.7727 354.85 15.0117H327.402C327.929 16.7727 329.772 18.5888 332.273 19.0291ZM332.273 26.8986H350.045C352.547 26.5134 354.39 24.6423 354.85 22.8813H327.402C327.929 24.6423 329.772 26.4584 332.273 26.8986ZM332.273 34.9883H350.045C352.547 34.6031 354.39 32.732 354.85 30.971H327.402C327.929 32.732 329.772 34.6031 332.273 34.9883Z" fill="#878787"/>
<path d="M286 15.0668C286.527 16.8278 288.37 18.5888 290.805 19.0291H298.309L298.704 19.1391V34.9333H303.377V19.1391L303.772 19.0291H311.276C313.777 18.4787 315.554 16.8278 316.081 15.0668V15.0117L286 15.0668Z" fill="#878787"/>
</g>
<path d="M530.925 32.4264L532.393 28.9949C534.001 30.1853 536.097 30.8154 538.194 30.8154C539.732 30.8154 540.711 30.2204 540.711 29.3102C540.676 26.789 531.449 28.7498 531.379 22.4112C531.344 19.1897 534.21 16.7036 538.265 16.7036C540.676 16.7036 543.088 17.2991 544.8 18.665L543.428 22.1696C541.852 21.1566 539.907 20.4504 538.055 20.4504C536.797 20.4504 535.957 21.0453 535.957 21.8162C535.993 24.3023 545.289 22.9365 545.394 28.9949C545.394 32.2865 542.598 34.5977 538.614 34.5977C535.678 34.5977 532.987 33.8975 530.925 32.4264H530.925ZM589.383 27.7523C589.013 28.4108 588.473 28.9588 587.821 29.3402C587.169 29.7216 586.427 29.9226 585.671 29.9227C583.317 29.9227 581.408 28.01 581.408 25.6507C581.408 23.2914 583.317 21.3786 585.671 21.3786C586.427 21.3787 587.169 21.5797 587.821 21.9611C588.473 22.3425 589.013 22.8905 589.383 23.549L593.465 21.2834C591.936 18.5512 589.02 16.7036 585.671 16.7036C580.74 16.7036 576.742 20.709 576.742 25.6507C576.742 30.5918 580.74 34.5977 585.671 34.5977C589.02 34.5977 591.936 32.7502 593.465 30.0179L589.383 27.7523ZM548.043 34.2473H553.145V9.25577H548.043L548.043 34.2473ZM596.042 9.25577V34.2473H601.144V26.7599L607.19 34.2473H613.713L606.024 25.3524L613.153 17.0525H606.911L601.144 23.953V9.25577H596.042ZM568.866 17.0535V19.085C568.027 17.684 565.965 16.7036 563.798 16.7036C559.325 16.7036 555.795 20.6609 555.795 25.6331C555.795 30.6054 559.325 34.5977 563.798 34.5977C565.965 34.5977 568.027 33.6173 568.866 32.2163V34.2473H573.968V17.0535H568.866ZM568.866 27.7869C568.132 29.0124 566.594 29.9222 564.882 29.9222C562.526 29.9222 560.618 28.01 560.618 25.6507C560.618 23.2914 562.526 21.3786 564.882 21.3786C566.594 21.3786 568.132 22.324 568.866 23.5841V27.7869Z" fill="#878787"/>
<path d="M503.978 8.70361C502.325 8.70361 500.984 10.0469 500.984 11.7035C500.984 12.0971 501.061 12.4868 501.211 12.8506C501.362 13.2143 501.582 13.5449 501.86 13.8235C502.138 14.1021 502.468 14.3231 502.832 14.4741C503.195 14.6251 503.585 14.703 503.978 14.7034H506.973V11.7035C506.973 10.9086 506.658 10.1461 506.097 9.58348C505.535 9.0209 504.773 8.70441 503.978 8.70361ZM503.978 16.7033H495.994C494.341 16.7033 493 18.0466 493 19.7037C493 21.3603 494.341 22.7036 495.994 22.7036H503.979C505.632 22.7036 506.973 21.3603 506.973 19.7037C506.973 18.0466 505.632 16.7033 503.978 16.7033Z" fill="#878787"/>
<path d="M522.941 19.7037C522.941 18.0466 521.6 16.7033 519.947 16.7033C518.293 16.7033 516.953 18.0466 516.953 19.7037V22.7036H519.947C520.742 22.7028 521.504 22.3863 522.065 21.8237C522.627 21.2612 522.942 20.4986 522.941 19.7037ZM514.957 19.7037V11.7035C514.958 10.9086 514.643 10.1461 514.081 9.58348C513.519 9.0209 512.757 8.70441 511.963 8.70361C510.309 8.70361 508.969 10.0469 508.969 11.7035V19.7032C508.969 21.3608 510.309 22.7041 511.963 22.7041C512.757 22.7033 513.519 22.3868 514.081 21.8242C514.643 21.2617 514.958 20.4991 514.957 19.7042" fill="#878787"/>
<path d="M511.963 38.7036C512.757 38.7028 513.52 38.3863 514.081 37.8237C514.643 37.2612 514.958 36.4986 514.957 35.7037C514.958 34.9088 514.643 34.1463 514.081 33.5837C513.52 33.0211 512.757 32.7046 511.963 32.7038H508.969V35.7037C508.969 37.3603 510.309 38.7036 511.963 38.7036ZM511.963 30.7039H519.947C521.6 30.7039 522.941 29.3606 522.941 27.7035C522.942 26.9086 522.627 26.1461 522.065 25.5835C521.504 25.0209 520.742 24.7044 519.947 24.7036H511.963C510.309 24.7036 508.969 26.0469 508.969 27.7035C508.968 28.0971 509.045 28.4868 509.196 28.8506C509.346 29.2143 509.566 29.5449 509.844 29.8235C510.122 30.1021 510.453 30.3231 510.816 30.4741C511.179 30.6251 511.569 30.703 511.963 30.7034" fill="#878787"/>
<path d="M493 27.7035C493 28.0971 493.077 28.4868 493.227 28.8506C493.377 29.2143 493.598 29.5449 493.876 29.8235C494.154 30.1021 494.484 30.3231 494.847 30.4741C495.211 30.6251 495.6 30.703 495.994 30.7034C496.789 30.7026 497.551 30.3861 498.112 29.8235C498.674 29.261 498.989 28.4984 498.988 27.7035V24.7036H495.994C494.34 24.7036 493 26.0469 493 27.7035ZM500.984 27.7035V35.7032C500.984 37.3603 502.324 38.7036 503.978 38.7036C504.773 38.7028 505.535 38.3863 506.096 37.8237C506.658 37.2612 506.973 36.4986 506.972 35.7037V27.7035C506.973 27.3099 506.896 26.9201 506.745 26.5563C506.595 26.1925 506.375 25.8619 506.097 25.5833C505.819 25.3048 505.488 25.0837 505.125 24.9327C504.761 24.7818 504.372 24.7039 503.978 24.7036C502.324 24.7036 500.984 26.0469 500.984 27.7035Z" fill="#878787"/>
<path fill-rule="evenodd" clip-rule="evenodd" d="M717.306 25.8169C717.306 20.1774 714.574 15.7274 709.353 15.7274C704.11 15.7274 700.938 20.1774 700.938 25.7728C700.938 32.4037 704.683 35.7521 710.058 35.7521C712.68 35.7521 714.662 35.1573 716.16 34.3202V29.9143C714.662 30.6633 712.944 31.126 710.763 31.126C708.626 31.126 706.732 30.377 706.489 27.7775H717.262C717.262 27.4911 717.306 26.3456 717.306 25.8169ZM706.423 23.7241C706.423 21.2348 707.943 20.1994 709.331 20.1994C710.675 20.1994 712.107 21.2348 712.107 23.7241H706.423Z" fill="#878787"/>
<path fill-rule="evenodd" clip-rule="evenodd" d="M692.434 15.7274C690.276 15.7274 688.888 16.7408 688.117 17.4457L687.83 16.0799H682.984V41.7661L688.491 40.5986L688.513 34.3643C689.306 34.937 690.474 35.7521 692.412 35.7521C696.356 35.7521 699.946 32.5799 699.946 25.5966C699.924 19.2081 696.29 15.7274 692.434 15.7274ZM691.113 30.9056C689.813 30.9056 689.042 30.443 688.513 29.8703L688.491 21.6974C689.064 21.0585 689.857 20.6179 691.113 20.6179C693.117 20.6179 694.505 22.8649 694.505 25.7508C694.505 28.7027 693.139 30.9056 691.113 30.9056Z" fill="#878787"/>
<path fill-rule="evenodd" clip-rule="evenodd" d="M675.406 14.4277L680.935 13.2381V8.76611L675.406 9.93367V14.4277Z" fill="#878787"/>
<path d="M680.935 16.1019H675.406V35.3776H680.935V16.1019Z" fill="#878787"/>
<path fill-rule="evenodd" clip-rule="evenodd" d="M669.48 17.7321L669.127 16.1019H664.369V35.3776H669.876V22.3142C671.176 20.6179 673.379 20.9263 674.062 21.1686V16.1019C673.357 15.8375 670.779 15.3529 669.48 17.7321Z" fill="#878787"/>
<path fill-rule="evenodd" clip-rule="evenodd" d="M658.465 11.3215L653.09 12.467L653.068 30.1125C653.068 33.3729 655.513 35.7741 658.773 35.7741C660.58 35.7741 661.902 35.4436 662.629 35.0471V30.5751C661.924 30.8615 658.443 31.8749 658.443 28.6145V20.7941H662.629V16.1019H658.443L658.465 11.3215Z" fill="#878787"/>
<path fill-rule="evenodd" clip-rule="evenodd" d="M643.573 21.6974C643.573 20.8383 644.278 20.5078 645.446 20.5078C647.12 20.5078 649.235 21.0145 650.909 21.9177V16.7408C649.081 16.0138 647.274 15.7274 645.446 15.7274C640.974 15.7274 638 18.0626 638 21.9618C638 28.0418 646.371 27.0726 646.371 29.694C646.371 30.7074 645.49 31.0378 644.256 31.0378C642.428 31.0378 640.093 30.2888 638.242 29.2755V34.5185C640.291 35.3996 642.362 35.7742 644.256 35.7742C648.838 35.7742 651.989 33.5051 651.989 29.5619C651.967 22.9971 643.573 24.1647 643.573 21.6974Z" fill="#878787"/>
<defs>
<clipPath id="clip0_2_22">
<rect width="128" height="48" fill="white"/>
</clipPath>
<clipPath id="clip1_2_22">
<rect width="183" height="48" fill="white" transform="translate(286)"/>
</clipPath>
</defs>
</svg>
