<svg width="108" height="40" viewBox="0 0 108 40" fill="none" xmlns="http://www.w3.org/2000/svg">
<path d="M19.2976 15.4045V25.095M17.0952 13.2021H7.40477M17.0952 27.2974H7.40477M5.20239 15.4045V25.095" stroke="white" stroke-width="1.5"/>
<circle cx="19.2976" cy="13.2024" r="2.20238" stroke="white" stroke-width="1.5"/>
<circle cx="5.20238" cy="13.2024" r="2.20238" stroke="white" stroke-width="1.5"/>
<circle cx="19.2976" cy="27.2976" r="2.20238" stroke="white" stroke-width="1.5"/>
<circle cx="5.20238" cy="27.2976" r="2.20238" stroke="white" stroke-width="1.5"/>
<path d="M37.471 11.528C33.407 11.528 30.719 13.512 30.719 16.776C30.719 19.72 32.895 21.096 36.063 21.896C39.007 22.632 40.127 23.368 40.127 24.68C40.127 25.928 39.039 26.536 37.631 26.536C36.095 26.536 34.815 25.672 34.463 23.816H30.047C30.527 27.656 33.439 29.448 37.567 29.448C41.471 29.448 44.575 27.784 44.575 24.36C44.575 21.224 42.527 19.816 39.039 18.92C36.223 18.216 35.167 17.544 35.167 16.264C35.167 15.208 35.871 14.44 37.183 14.44C38.655 14.44 39.519 15.336 39.807 16.904H44.223C43.839 13.8 41.535 11.528 37.471 11.528ZM54.6573 11.528C49.9852 11.528 46.1453 14.792 46.1453 20.616C46.1453 26.504 49.6333 29.448 54.2733 29.448C58.5293 29.448 61.6653 27.304 62.4013 23.112H57.9853C57.5373 25.256 56.2573 26.344 54.5293 26.344C52.3213 26.344 50.7213 24.552 50.7213 20.328C50.7213 16.456 52.3213 14.632 54.5613 14.632C56.3853 14.632 57.6653 15.656 58.0813 18.12H62.4333C62.1133 14.344 59.2653 11.528 54.6573 11.528ZM75.1228 29H79.4428C79.1868 27.112 79.1228 25.96 79.1228 24.68V19.176C79.1228 18.248 79.0908 17.352 79.0268 16.552C78.7708 13.608 76.9788 11.528 72.2108 11.528C68.1468 11.528 65.0428 13.704 64.9148 17.544L69.2028 17.512C69.3308 15.656 70.2908 14.632 72.0508 14.632C73.7788 14.632 74.5468 15.496 74.6748 16.68C74.7388 17.256 74.7388 17.768 74.7388 18.28V18.632H73.6508C67.4748 18.632 64.2747 20.744 64.2747 24.488C64.2747 27.72 66.8028 29.448 69.7468 29.448C71.3468 29.448 72.7868 29.128 73.9708 28.328L74.8028 26.504L75.1228 29ZM71.4427 26.344C69.8748 26.344 68.8508 25.64 68.8508 24.136C68.8508 21.896 71.2188 21.096 74.7388 21.352V22.728C74.7388 25.096 73.2348 26.344 71.4427 26.344ZM87.4915 5.48H83.0755V23.528C83.0755 24.648 83.0755 25.448 83.1395 26.216C83.2355 28.424 84.6115 29.224 86.7875 29.224C87.7795 29.224 88.6435 29.192 89.5075 29.096V26.056C88.0035 26.152 87.6195 25.864 87.5235 25C87.4915 24.552 87.4915 24.104 87.4915 23.432V5.48ZM107.597 20.136C107.597 15.496 104.845 11.528 99.629 11.528C94.413 11.528 90.989 15.336 90.989 20.552C90.989 26.536 94.605 29.448 99.277 29.448C103.277 29.448 106.477 27.432 107.341 23.464H102.925C102.637 25.288 101.261 26.344 99.373 26.344C97.325 26.344 95.725 25.224 95.437 21.64H107.533C107.597 21.064 107.597 20.552 107.597 20.136ZM99.437 14.632C101.549 14.632 102.765 16.072 103.053 18.76H95.565C95.949 15.944 97.389 14.632 99.437 14.632Z" fill="white"/>
</svg>
