<svg width="183" height="48" viewBox="0 0 183 48" fill="none" xmlns="http://www.w3.org/2000/svg">
<g clip-path="url(#clip0_119_54)">
<path d="M156.724 22.9363V34.9883H161.331V26.9537H178.182V34.9883H182.789V22.9363H156.724ZM160.805 19.0291H178.577C181.078 18.6438 182.855 16.7727 183.382 15.0117H156C156.526 16.7727 158.369 18.5888 160.805 19.0291ZM142.703 34.9883C145.007 34.1629 146.258 32.732 146.784 31.0811H126.05V15.0668H121.377V34.9883H142.703ZM86.82 18.974H103.276C105.777 18.3687 107.817 16.7727 108.344 15.0668H82.2782V26.8436H103.605V30.971H86.8858C84.2529 31.5764 82.015 33.0622 80.896 34.9883H108.212V22.9363H86.8858L86.82 18.974ZM46.2733 19.0291H64.0454C66.5467 18.6438 68.3897 16.7727 68.8504 15.0117H41.4024C41.929 16.7727 43.772 18.5888 46.2733 19.0291ZM46.2733 26.8986H64.0454C66.5467 26.5134 68.3897 24.6423 68.8504 22.8813H41.4024C41.929 24.6423 43.772 26.4584 46.2733 26.8986ZM46.2733 34.9883H64.0454C66.5467 34.6031 68.3897 32.732 68.8504 30.971H41.4024C41.929 32.732 43.772 34.6031 46.2733 34.9883Z" fill="#878787"/>
<path d="M0 15.0668C0.526581 16.8278 2.36961 18.5888 4.80505 19.0291H12.3088L12.7038 19.1391V34.9333H17.3772V19.1391L17.7721 19.0291H25.2759C27.7771 18.4787 29.5543 16.8278 30.0809 15.0668V15.0117L0 15.0668Z" fill="#878787"/>
</g>
<defs>
<clipPath id="clip0_119_54">
<rect width="183" height="48" fill="white"/>
</clipPath>
</defs>
</svg>
